<svg xmlns="http://www.w3.org/2000/svg" width="118" height="90" viewBox="0 0 118 90" fill="none">
    <g clip-path="url(#clip0)">
        <path fill-rule="evenodd" clip-rule="evenodd" d="M61.7342 0.437682C40.6804 7.69867 31.3644 36.2125 31.2372 58.2553C19.0305 64.2908 5.38508 70.1583 0.586648 81.576C-0.00156345 84.061 -0.759349 86.4122 1.73393 83.9272C5.5626 80.4791 29.4541 67.2403 31.0544 67.3636C31.6903 67.2114 31.7486 67.3112 32.5806 69.9038C34.8778 77.0835 38.0785 82.1087 42.4318 85.3862C57.4338 95.8539 69.1318 87.2231 77.4383 72.4833C80.5066 70.1216 86.6192 67.7258 88.3547 63.9287C89.8332 61.6483 90.2094 60.5356 90.1882 58.3681C90.175 55.8384 89.8517 55.5996 86.545 55.66L83.9617 55.7072C84.8201 54.1774 86.8524 52.9598 89.6053 51.771C92.9701 50.3517 95.8354 47.9777 97.8403 44.9483C99.483 42.4973 98.7809 42.5157 93.6857 45.0585C87.5386 48.113 83.1959 51.632 79.6746 56.4184C72.0676 67.2692 63.4272 89.1177 47.5429 76.2673C44.5223 73.6616 40.2962 66.6997 41.5283 62.7504C43.648 61.0893 45.2695 60.6222 49.4771 58.0007C72.9632 43.9012 81.7413 33.1817 78.7976 11.5903C76.2752 3.22976 69.826 -1.51992 61.7342 0.437682ZM66.2226 10.2703C70.6925 12.2804 70.9336 22.9396 66.7022 31.4025C64.5825 35.6378 61.403 39.0466 56.0216 42.8463C51.7187 45.8877 43.1525 50.6925 42.7498 50.291C42.3921 49.9341 42.6941 43.3187 43.2373 39.6685C45.092 27.1435 47.7628 20.7144 53.425 15.125C55.2506 13.3274 56.3396 12.5008 57.9876 11.648C61.5275 9.83471 64.2433 9.38074 66.2226 10.2703Z" fill="#0F4D97"/>
        <path d="M101.767 41.8498C102.79 40.7897 107.689 36.7459 108.508 36.2893C109.3 35.8432 110.633 35.9298 111.223 36.4336C111.51 36.6882 112.755 38.3099 113.992 40.0418C117.752 45.3295 117.744 45.2429 114.522 47.6046C113.245 48.5388 111.319 49.9715 110.24 50.7877C107.307 53.0077 107.273 52.9946 104.223 48.3078C102.874 46.2164 101.558 44.1197 101.309 43.65L100.855 42.7945L101.767 41.8498Z" fill="#EE8D21"/>
    </g>
    <defs>
        <clipPath id="clip0">
            <rect width="118" height="90" fill="white"/>
        </clipPath>
    </defs>
</svg>